# xmcd
#
# Track frame offsets: 
#        150
#        20214
#        38186
#        57184
#        78215
#        97765
#        118185
#        133112
#        152721
#        172922
#        194433
#        212360
#        230414
#        247814
#        273461
#        290505
#        309155
#        328508
#
# Disc length: 4652 seconds
#
# Revision: 0
# Processed by: cddbd v1.5.2PL0 Copyright (c) Steve Scherf et al.
# Submitted via: ExactAudioCopyFreeDBPlugin 1.0
#
DISCID=ee122a12
DTITLE=Various Artist - Formel Eins 80s Party Hits - CD2
DYEAR=1900
DGENRE=Pop
TTITLE0=The Communards  - Never Can Say Goodbye 
TTITLE1=Alphaville  - Dance With Me 
TTITLE2=Gloria Estefan and Miami Sound Machine  - Conga
TTITLE3=Sister Sledge - Lost In Music 
TTITLE4=The Pasadenas  - Tribute (Right On) 
TTITLE5=Whitney Houston  - So Emotional
TTITLE6=Rick Astley - Together Forever 
TTITLE7=Dusty Springfield  - In Private 
TTITLE8=Christopher Cross - Ride Like the Wind 
TTITLE9=Bill Medley and Jennifer Warnes  - (I've Had) the Time of My Lif
TTITLE9=e 
TTITLE10=Sandra  - Maria Magdalena
TTITLE11=Blind Date - Your Heart Keeps Burning 
TTITLE12=Fancy - Chinese Eyes 
TTITLE13=Okay  - Okay! 
TTITLE14=Kenny Loggins  - Footloose 
TTITLE15=Falco - Vienna Calling 
TTITLE16=Clowns and Helden - Ich liebe dich 
TTITLE17=Rufus and ChakaKhan - Ain't Nobody 
EXTD=
EXTT0=
EXTT1=
EXTT2=
EXTT3=
EXTT4=
EXTT5=
EXTT6=
EXTT7=
EXTT8=
EXTT9=
EXTT10=
EXTT11=
EXTT12=
EXTT13=
EXTT14=
EXTT15=
EXTT16=
EXTT17=
PLAYORDER=
